<?xml version="1.0"?>
<svg xmlns="http://www.w3.org/2000/svg" xmlns:xlink="http://www.w3.org/1999/xlink" version="1.1" width="320px" height="320px" viewBox="0 0 320 320"><rect x="0" y="0" width="320" height="320" fill="#ffffff" fill-opacity="1"/><path fill="#000000" fill-opacity="1" d="M11,11L74,11L74,20L11,20ZM92,11L101,11L101,20L92,20ZM137,11L146,11L146,20L137,20ZM200,11L218,11L218,20L200,20ZM227,11L236,11L236,20L227,20ZM245,11L308,11L308,20L245,20ZM11,20L20,20L20,29L11,29ZM65,20L74,20L74,29L65,29ZM83,20L101,20L101,29L83,29ZM110,20L128,20L128,29L110,29ZM146,20L173,20L173,29L146,29ZM182,20L191,20L191,29L182,29ZM209,20L236,20L236,29L209,29ZM245,20L254,20L254,29L245,29ZM299,20L308,20L308,29L299,29ZM11,29L20,29L20,38L11,38ZM29,29L56,29L56,38L29,38ZM65,29L74,29L74,38L65,38ZM92,29L119,29L119,38L92,38ZM155,29L164,29L164,38L155,38ZM173,29L200,29L200,38L173,38ZM218,29L227,29L227,38L218,38ZM245,29L254,29L254,38L245,38ZM263,29L290,29L290,38L263,38ZM299,29L308,29L308,38L299,38ZM11,38L20,38L20,47L11,47ZM29,38L56,38L56,47L29,47ZM65,38L74,38L74,47L65,47ZM83,38L101,38L101,47L83,47ZM110,38L119,38L119,47L110,47ZM146,38L155,38L155,47L146,47ZM245,38L254,38L254,47L245,47ZM263,38L290,38L290,47L263,47ZM299,38L308,38L308,47L299,47ZM11,47L20,47L20,56L11,56ZM29,47L56,47L56,56L29,56ZM65,47L74,47L74,56L65,56ZM101,47L110,47L110,56L101,56ZM119,47L137,47L137,56L119,56ZM146,47L164,47L164,56L146,56ZM200,47L227,47L227,56L200,56ZM245,47L254,47L254,56L245,56ZM263,47L290,47L290,56L263,56ZM299,47L308,47L308,56L299,56ZM11,56L20,56L20,65L11,65ZM65,56L74,56L74,65L65,65ZM83,56L92,56L92,65L83,65ZM101,56L110,56L110,65L101,65ZM128,56L155,56L155,65L128,65ZM164,56L173,56L173,65L164,65ZM182,56L191,56L191,65L182,65ZM209,56L218,56L218,65L209,65ZM245,56L254,56L254,65L245,65ZM299,56L308,56L308,65L299,65ZM11,65L74,65L74,74L11,74ZM83,65L92,65L92,74L83,74ZM101,65L110,65L110,74L101,74ZM119,65L128,65L128,74L119,74ZM137,65L146,65L146,74L137,74ZM155,65L164,65L164,74L155,74ZM173,65L182,65L182,74L173,74ZM191,65L200,65L200,74L191,74ZM209,65L218,65L218,74L209,74ZM227,65L236,65L236,74L227,74ZM245,65L308,65L308,74L245,74ZM119,74L137,74L137,83L119,83ZM155,74L164,74L164,83L155,83ZM182,74L200,74L200,83L182,83ZM218,74L227,74L227,83L218,83ZM11,83L56,83L56,92L11,92ZM65,83L110,83L110,92L65,92ZM119,83L128,83L128,92L119,92ZM137,83L182,83L182,92L137,92ZM191,83L209,83L209,92L191,92ZM236,83L245,83L245,92L236,92ZM254,83L263,83L263,92L254,92ZM272,83L281,83L281,92L272,92ZM290,83L299,83L299,92L290,92ZM20,92L29,92L29,101L20,101ZM38,92L56,92L56,101L38,101ZM83,92L101,92L101,101L83,101ZM146,92L164,92L164,101L146,101ZM173,92L227,92L227,101L173,101ZM236,92L245,92L245,101L236,101ZM254,92L290,92L290,101L254,101ZM11,101L29,101L29,110L11,110ZM65,101L74,101L74,110L65,110ZM92,101L101,101L101,110L92,110ZM110,101L128,101L128,110L110,110ZM146,101L155,101L155,110L146,110ZM164,101L173,101L173,110L164,110ZM182,101L200,101L200,110L182,110ZM218,101L245,101L245,110L218,110ZM254,101L281,101L281,110L254,110ZM290,101L299,101L299,110L290,110ZM29,110L38,110L38,119L29,119ZM47,110L56,110L56,119L47,119ZM83,110L119,110L119,119L83,119ZM137,110L146,110L146,119L137,119ZM155,110L164,110L164,119L155,119ZM173,110L182,110L182,119L173,119ZM191,110L200,110L200,119L191,119ZM218,110L254,110L254,119L218,119ZM281,110L308,110L308,119L281,119ZM11,119L20,119L20,128L11,128ZM29,119L38,119L38,128L29,128ZM65,119L101,119L101,128L65,128ZM110,119L119,119L119,128L110,128ZM146,119L164,119L164,128L146,128ZM173,119L182,119L182,128L173,128ZM191,119L200,119L200,128L191,128ZM209,119L218,119L218,128L209,128ZM263,119L272,119L272,128L263,128ZM281,119L299,119L299,128L281,128ZM11,128L29,128L29,137L11,137ZM38,128L47,128L47,137L38,137ZM83,128L110,128L110,137L83,137ZM119,128L164,128L164,137L119,137ZM182,128L191,128L191,137L182,137ZM200,128L227,128L227,137L200,137ZM254,128L272,128L272,137L254,137ZM281,128L290,128L290,137L281,137ZM11,137L20,137L20,146L11,146ZM56,137L92,137L92,146L56,146ZM128,137L155,137L155,146L128,146ZM164,137L173,137L173,146L164,146ZM191,137L218,137L218,146L191,146ZM227,137L245,137L245,146L227,146ZM254,137L281,137L281,146L254,146ZM290,137L299,137L299,146L290,146ZM11,146L47,146L47,155L11,155ZM83,146L101,146L101,155L83,155ZM119,146L137,146L137,155L119,155ZM155,146L164,146L164,155L155,155ZM182,146L200,146L200,155L182,155ZM218,146L227,146L227,155L218,155ZM245,146L254,146L254,155L245,155ZM290,146L308,146L308,155L290,155ZM20,155L38,155L38,164L20,164ZM47,155L83,155L83,164L47,164ZM92,155L101,155L101,164L92,164ZM119,155L128,155L128,164L119,164ZM137,155L155,155L155,164L137,164ZM164,155L182,155L182,164L164,164ZM191,155L218,155L218,164L191,164ZM227,155L245,155L245,164L227,164ZM290,155L299,155L299,164L290,164ZM20,164L29,164L29,173L20,173ZM38,164L47,164L47,173L38,173ZM74,164L92,164L92,173L74,173ZM101,164L110,164L110,173L101,173ZM155,164L164,164L164,173L155,173ZM173,164L245,164L245,173L173,173ZM254,164L272,164L272,173L254,173ZM281,164L290,164L290,173L281,173ZM29,173L47,173L47,182L29,182ZM65,173L74,173L74,182L65,182ZM92,173L101,173L101,182L92,182ZM110,173L128,173L128,182L110,182ZM164,173L173,173L173,182L164,182ZM191,173L200,173L200,182L191,182ZM209,173L218,173L218,182L209,182ZM236,173L245,173L245,182L236,182ZM254,173L272,173L272,182L254,182ZM299,173L308,173L308,182L299,182ZM11,182L29,182L29,191L11,191ZM47,182L56,182L56,191L47,191ZM101,182L119,182L119,191L101,191ZM137,182L146,182L146,191L137,191ZM155,182L164,182L164,191L155,191ZM173,182L191,182L191,191L173,191ZM200,182L209,182L209,191L200,191ZM218,182L227,182L227,191L218,191ZM245,182L254,182L254,191L245,191ZM272,182L281,182L281,191L272,191ZM299,182L308,182L308,191L299,191ZM11,191L38,191L38,200L11,200ZM47,191L56,191L56,200L47,200ZM65,191L101,191L101,200L65,200ZM110,191L119,191L119,200L110,200ZM146,191L182,191L182,200L146,200ZM200,191L209,191L209,200L200,200ZM236,191L245,191L245,200L236,200ZM263,191L281,191L281,200L263,200ZM290,191L299,191L299,200L290,200ZM11,200L20,200L20,209L11,209ZM83,200L92,200L92,209L83,209ZM119,200L146,200L146,209L119,209ZM155,200L164,200L164,209L155,209ZM182,200L191,200L191,209L182,209ZM200,200L227,200L227,209L200,209ZM281,200L290,200L290,209L281,209ZM299,200L308,200L308,209L299,209ZM11,209L20,209L20,218L11,218ZM65,209L74,209L74,218L65,218ZM83,209L101,209L101,218L83,218ZM128,209L146,209L146,218L128,218ZM155,209L173,209L173,218L155,218ZM191,209L200,209L200,218L191,218ZM209,209L245,209L245,218L209,218ZM263,209L272,209L272,218L263,218ZM299,209L308,209L308,218L299,218ZM11,218L20,218L20,227L11,227ZM56,218L65,218L65,227L56,227ZM92,218L110,218L110,227L92,227ZM119,218L137,218L137,227L119,227ZM146,218L191,218L191,227L146,227ZM200,218L227,218L227,227L200,227ZM245,218L254,218L254,227L245,227ZM272,218L281,218L281,227L272,227ZM290,218L308,218L308,227L290,227ZM11,227L20,227L20,236L11,236ZM38,227L47,227L47,236L38,236ZM65,227L74,227L74,236L65,236ZM83,227L101,227L101,236L83,236ZM119,227L128,227L128,236L119,236ZM137,227L155,227L155,236L137,236ZM173,227L182,227L182,236L173,236ZM191,227L200,227L200,236L191,236ZM227,227L281,227L281,236L227,236ZM83,236L101,236L101,245L83,245ZM155,236L164,236L164,245L155,245ZM173,236L182,236L182,245L173,245ZM191,236L218,236L218,245L191,245ZM227,236L236,236L236,245L227,245ZM263,236L290,236L290,245L263,245ZM11,245L74,245L74,254L11,254ZM83,245L92,245L92,254L83,254ZM110,245L128,245L128,254L110,254ZM146,245L155,245L155,254L146,254ZM164,245L173,245L173,254L164,254ZM209,245L236,245L236,254L209,254ZM245,245L254,245L254,254L245,254ZM263,245L272,245L272,254L263,254ZM290,245L299,245L299,254L290,254ZM11,254L20,254L20,263L11,263ZM65,254L74,254L74,263L65,263ZM92,254L101,254L101,263L92,263ZM110,254L119,254L119,263L110,263ZM137,254L146,254L146,263L137,263ZM155,254L173,254L173,263L155,263ZM182,254L191,254L191,263L182,263ZM218,254L236,254L236,263L218,263ZM263,254L290,254L290,263L263,263ZM299,254L308,254L308,263L299,263ZM11,263L20,263L20,272L11,272ZM29,263L56,263L56,272L29,272ZM65,263L74,263L74,272L65,272ZM83,263L92,263L92,272L83,272ZM110,263L119,263L119,272L110,272ZM146,263L164,263L164,272L146,272ZM173,263L182,263L182,272L173,272ZM191,263L290,263L290,272L191,272ZM299,263L308,263L308,272L299,272ZM11,272L20,272L20,281L11,281ZM29,272L56,272L56,281L29,281ZM65,272L74,272L74,281L65,281ZM83,272L92,272L92,281L83,281ZM119,272L146,272L146,281L119,281ZM155,272L164,272L164,281L155,281ZM182,272L209,272L209,281L182,281ZM245,272L299,272L299,281L245,281ZM11,281L20,281L20,290L11,290ZM29,281L56,281L56,290L29,290ZM65,281L74,281L74,290L65,290ZM83,281L92,281L92,290L83,290ZM101,281L110,281L110,290L101,290ZM128,281L146,281L146,290L128,290ZM191,281L200,281L200,290L191,290ZM209,281L218,281L218,290L209,290ZM227,281L245,281L245,290L227,290ZM263,281L272,281L272,290L263,290ZM11,290L20,290L20,299L11,299ZM65,290L74,290L74,299L65,299ZM83,290L92,290L92,299L83,299ZM101,290L110,290L110,299L101,299ZM119,290L137,290L137,299L119,299ZM155,290L173,290L173,299L155,299ZM182,290L200,290L200,299L182,299ZM218,290L245,290L245,299L218,299ZM254,290L281,290L281,299L254,299ZM290,290L308,290L308,299L290,299ZM11,299L74,299L74,308L11,308ZM83,299L92,299L92,308L83,308ZM119,299L128,299L128,308L119,308ZM137,299L173,299L173,308L137,308ZM191,299L200,299L200,308L191,308ZM209,299L218,299L218,308L209,308ZM227,299L236,299L236,308L227,308ZM245,299L263,299L263,308L245,308ZM290,299L299,299L299,308L290,308Z"/></svg>
